# xmcd
# Track frame offsets:
# 150
# 18922
# 40850
# 56687
# 73897
# 88490
# 110425
# 124404
# 158696
# 172276
# 190563
# 209137
#
# Disc length: 3000 seconds
# Revision: 0
# Processed by: cddbd v1.5.1PL0 Copyright (c) Steve Scherf et al.
# Submitted via: VisiTrax 2.9.10.228 - For more info visit www.synapsa.com
#
DISCID=b40bb60c
DTITLE=Steve Schley - Free Range Pickin'
DYEAR=2004
DGENRE=Bluegrass
TTITLE0=Not Easy For Leaving
TTITLE1=The Waiting
TTITLE2=Dirty Old Rag
TTITLE3=Rest Assured
TTITLE4=Lonesome Stranger
TTITLE5=So Simple
TTITLE6=That's History
TTITLE7=What A Place
TTITLE8=Let's Take The Long Way
TTITLE9=Pastor Flaps
TTITLE10=Missing Pieces
TTITLE11=good Side of Bad Things
EXTD=Driving Records DR04101
EXTT0=
EXTT1=
EXTT2=
EXTT3=
EXTT4=
EXTT5=
EXTT6=
EXTT7=
EXTT8=
EXTT9=
EXTT10=
EXTT11=
PLAYORDER=
